<svg width="41" height="41" viewBox="0 0 41 41" fill="none" xmlns="http://www.w3.org/2000/svg">
<path d="M22.208 20.3292H11.958C11.2576 20.3292 10.6768 19.7484 10.6768 19.048C10.6768 18.3476 11.2576 17.7667 11.958 17.7667H22.208C22.9084 17.7667 23.4893 18.3476 23.4893 19.048C23.4893 19.7484 22.9084 20.3292 22.208 20.3292Z" fill="#2F2621"/>
<path d="M3.41699 20.3293C2.71658 20.3293 2.13574 19.7485 2.13574 19.0481V11.1556C2.13574 6.97014 5.53533 3.57056 9.72075 3.57056H19.3216C23.712 3.57056 26.9066 6.4918 26.9066 10.5064C26.9066 11.2068 26.3257 11.7876 25.6253 11.7876C24.9249 11.7876 24.3441 11.2068 24.3441 10.5064C24.3441 7.49972 21.7303 6.13306 19.3216 6.13306H9.72075C6.95325 6.13306 4.69824 8.38806 4.69824 11.1556V19.0481C4.69824 19.7656 4.11741 20.3293 3.41699 20.3293Z" fill="#2F2621"/>
<path d="M27.3337 37.4126H10.2503C5.77449 37.4126 2.13574 33.7738 2.13574 29.298V17.3397C2.13574 12.8638 5.77449 9.2251 10.2503 9.2251H27.3337C31.8095 9.2251 35.4482 12.8638 35.4482 17.3397V19.8167C35.4482 20.5171 34.8674 21.0979 34.167 21.0979H32.322C31.724 21.0979 31.1774 21.32 30.7845 21.73L30.7674 21.7471C30.2037 22.3109 29.9815 23.0967 30.1865 23.8654C30.4428 24.8221 31.4508 25.5226 32.5783 25.5226H34.167C34.8674 25.5226 35.4482 26.1034 35.4482 26.8038V29.2809C35.4482 33.7738 31.8095 37.4126 27.3337 37.4126ZM10.2503 11.7876C7.19241 11.7876 4.69824 14.2818 4.69824 17.3397V29.298C4.69824 32.3559 7.19241 34.8501 10.2503 34.8501H27.3337C30.3916 34.8501 32.8857 32.3559 32.8857 29.298V28.1022H32.5783C30.272 28.1022 28.2732 26.65 27.7094 24.5488C27.2653 22.8917 27.7437 21.1321 28.9566 19.9363C29.8449 19.0309 31.0407 18.5354 32.322 18.5354H32.8857V17.3397C32.8857 14.2818 30.3916 11.7876 27.3337 11.7876H10.2503V11.7876Z" fill="#2F2621"/>
<path d="M35.8232 28.1021H32.5261C29.9466 28.1021 27.7599 26.1888 27.5549 23.7288C27.4183 22.3109 27.9308 20.9271 28.9558 19.9191C29.81 19.0308 31.0228 18.5354 32.3041 18.5354H35.8062C37.4804 18.5354 38.847 19.885 38.847 21.5592V25.0783C38.8641 26.7525 37.4974 28.1021 35.8232 28.1021ZM32.3212 21.0979C31.7232 21.0979 31.1766 21.32 30.7837 21.73C30.2883 22.2083 30.0491 22.8575 30.1174 23.5067C30.2029 24.6342 31.2961 25.5396 32.5261 25.5396H35.8232C36.0795 25.5396 36.3016 25.3346 36.3016 25.0783V21.5592C36.3016 21.3029 36.0795 21.0979 35.8232 21.0979H32.3212V21.0979Z" fill="#2F2621"/>
</svg>
