<svg width="36" height="36" viewBox="0 0 36 36" fill="none" xmlns="http://www.w3.org/2000/svg">
<path d="M13.7398 17.43C13.6948 17.43 13.6648 17.43 13.6198 17.43C13.5448 17.415 13.4398 17.415 13.3498 17.43C8.99984 17.295 5.71484 13.875 5.71484 9.66C5.71484 5.37 9.20984 1.875 13.4998 1.875C17.7898 1.875 21.2848 5.37 21.2848 9.66C21.2698 13.875 17.9698 17.295 13.7848 17.43C13.7698 17.43 13.7548 17.43 13.7398 17.43ZM13.4998 4.125C10.4548 4.125 7.96484 6.615 7.96484 9.66C7.96484 12.66 10.3048 15.075 13.2898 15.18C13.3798 15.165 13.5748 15.165 13.7698 15.18C16.7098 15.045 19.0198 12.63 19.0348 9.66C19.0348 6.615 16.5448 4.125 13.4998 4.125Z" fill="#2F2621"/>
<path d="M24.8096 17.625C24.7646 17.625 24.7196 17.625 24.6746 17.61C24.0596 17.67 23.4296 17.235 23.3696 16.62C23.3096 16.005 23.6846 15.45 24.2996 15.375C24.4796 15.36 24.6746 15.36 24.8396 15.36C27.0296 15.24 28.7396 13.44 28.7396 11.235C28.7396 8.955 26.8946 7.11 24.6146 7.11C23.9996 7.125 23.4896 6.615 23.4896 6C23.4896 5.385 23.9996 4.875 24.6146 4.875C28.1246 4.875 30.9896 7.74 30.9896 11.25C30.9896 14.7 28.2896 17.49 24.8546 17.625C24.8396 17.625 24.8246 17.625 24.8096 17.625Z" fill="#2F2621"/>
<path d="M13.7544 33.825C10.8144 33.825 7.85941 33.075 5.62441 31.575C3.53941 30.195 2.39941 28.305 2.39941 26.25C2.39941 24.195 3.53941 22.29 5.62441 20.895C10.1244 17.91 17.4144 17.91 21.8844 20.895C23.9544 22.275 25.1094 24.165 25.1094 26.22C25.1094 28.275 23.9694 30.18 21.8844 31.575C19.6344 33.075 16.6944 33.825 13.7544 33.825ZM6.86941 22.785C5.42941 23.745 4.64941 24.975 4.64941 26.265C4.64941 27.54 5.44441 28.77 6.86941 29.715C10.6044 32.22 16.9044 32.22 20.6394 29.715C22.0794 28.755 22.8594 27.525 22.8594 26.235C22.8594 24.96 22.0644 23.73 20.6394 22.785C16.9044 20.295 10.6044 20.295 6.86941 22.785Z" fill="#2F2621"/>
<path d="M27.5093 31.125C26.9843 31.125 26.5193 30.765 26.4143 30.225C26.2943 29.61 26.6843 29.025 27.2843 28.89C28.2293 28.695 29.0993 28.32 29.7743 27.795C30.6293 27.15 31.0943 26.34 31.0943 25.485C31.0943 24.63 30.6293 23.82 29.7893 23.19C29.1293 22.68 28.3043 22.32 27.3293 22.095C26.7293 21.96 26.3393 21.36 26.4743 20.745C26.6093 20.145 27.2093 19.755 27.8243 19.89C29.1143 20.175 30.2393 20.685 31.1543 21.39C32.5493 22.44 33.3443 23.925 33.3443 25.485C33.3443 27.045 32.5343 28.53 31.1393 29.595C30.2093 30.315 29.0393 30.84 27.7493 31.095C27.6593 31.125 27.5843 31.125 27.5093 31.125Z" fill="#2F2621"/>
</svg>
