<svg width="36" height="36" viewBox="0 0 36 36" fill="none" xmlns="http://www.w3.org/2000/svg">
<path d="M18 33.12C17.55 33.12 17.1 33.015 16.725 32.805C13.92 31.275 8.985 29.655 5.895 29.25L5.46 29.19C3.495 28.95 1.875 27.105 1.875 25.11V6.99C1.875 5.805 2.34 4.725 3.195 3.945C4.05 3.165 5.16 2.79 6.33 2.895C9.63 3.15 14.61 4.8 17.43 6.57L17.79 6.78C17.895 6.84 18.12 6.84 18.21 6.795L18.45 6.645C21.27 4.875 26.25 3.195 29.565 2.91C29.595 2.91 29.715 2.91 29.745 2.91C30.84 2.805 31.965 3.195 32.805 3.975C33.66 4.755 34.125 5.835 34.125 7.02V25.125C34.125 27.135 32.505 28.965 30.525 29.205L30.03 29.265C26.94 29.67 21.99 31.305 19.245 32.82C18.885 33.03 18.45 33.12 18 33.12ZM5.97 5.13C5.49 5.13 5.055 5.295 4.71 5.61C4.335 5.955 4.125 6.45 4.125 6.99V25.11C4.125 25.995 4.89 26.85 5.745 26.97L6.195 27.03C9.57 27.48 14.745 29.175 17.745 30.81C17.88 30.87 18.075 30.885 18.15 30.855C21.15 29.19 26.355 27.48 29.745 27.03L30.255 26.97C31.11 26.865 31.875 25.995 31.875 25.11V7.005C31.875 6.45 31.665 5.97 31.29 5.61C30.9 5.265 30.405 5.1 29.85 5.13C29.82 5.13 29.7 5.13 29.67 5.13C26.805 5.385 22.185 6.93 19.665 8.505L19.425 8.67C18.6 9.18 17.43 9.18 16.635 8.685L16.275 8.475C13.71 6.9 9.09 5.37 6.15 5.13C6.09 5.13 6.03 5.13 5.97 5.13Z" fill="white"/>
<path d="M18 31.86C17.385 31.86 16.875 31.35 16.875 30.735V8.235C16.875 7.62 17.385 7.11 18 7.11C18.615 7.11 19.125 7.62 19.125 8.235V30.735C19.125 31.365 18.615 31.86 18 31.86Z" fill="white"/>
<path d="M11.625 13.86H8.25C7.635 13.86 7.125 13.35 7.125 12.735C7.125 12.12 7.635 11.61 8.25 11.61H11.625C12.24 11.61 12.75 12.12 12.75 12.735C12.75 13.35 12.24 13.86 11.625 13.86Z" fill="white"/>
<path d="M12.75 18.36H8.25C7.635 18.36 7.125 17.85 7.125 17.235C7.125 16.62 7.635 16.11 8.25 16.11H12.75C13.365 16.11 13.875 16.62 13.875 17.235C13.875 17.85 13.365 18.36 12.75 18.36Z" fill="white"/>
</svg>
