<svg width="36" height="36" viewBox="0 0 36 36" fill="none" xmlns="http://www.w3.org/2000/svg">
<path d="M18 34.125C9.105 34.125 1.875 26.895 1.875 18C1.875 9.105 9.105 1.875 18 1.875C26.895 1.875 34.125 9.105 34.125 18C34.125 26.895 26.895 34.125 18 34.125ZM18 4.125C10.35 4.125 4.125 10.35 4.125 18C4.125 25.65 10.35 31.875 18 31.875C25.65 31.875 31.875 25.65 31.875 18C31.875 10.35 25.65 4.125 18 4.125Z" fill="white"/>
<path d="M23.565 23.895C23.37 23.895 23.175 23.85 22.995 23.73L18.345 20.955C17.19 20.265 16.335 18.75 16.335 17.415V11.265C16.335 10.65 16.845 10.14 17.46 10.14C18.075 10.14 18.585 10.65 18.585 11.265V17.415C18.585 17.955 19.035 18.75 19.5 19.02L24.15 21.795C24.69 22.11 24.855 22.8 24.54 23.34C24.315 23.7 23.94 23.895 23.565 23.895Z" fill="white"/>
</svg>
