<svg width="36" height="36" viewBox="0 0 36 36" fill="none" xmlns="http://www.w3.org/2000/svg">
<path d="M14.9849 34.125C14.6849 34.125 14.4449 34.065 14.2649 33.99C13.6649 33.765 12.6449 33.03 12.6449 30.705V21.03H9.13487C7.12487 21.03 6.40487 20.085 6.14987 19.53C5.89487 18.96 5.66987 17.805 6.98987 16.29L18.3449 3.39C19.8749 1.65 21.1199 1.77 21.7199 1.995C22.3199 2.22 23.3399 2.955 23.3399 5.28V14.955H26.8499C28.8599 14.955 29.5799 15.9 29.8349 16.455C30.0899 17.025 30.3149 18.18 28.9949 19.695L17.6399 32.595C16.5749 33.81 15.6449 34.125 14.9849 34.125ZM20.8949 4.11C20.8499 4.17 20.5349 4.32 20.0399 4.89L8.68487 17.79C8.26487 18.27 8.20487 18.57 8.20487 18.63C8.23487 18.645 8.50487 18.795 9.13487 18.795H13.7699C14.3849 18.795 14.8949 19.305 14.8949 19.92V30.72C14.8949 31.47 15.0299 31.8 15.0899 31.89C15.1349 31.83 15.4499 31.68 15.9449 31.11L27.2999 18.21C27.7199 17.73 27.7799 17.43 27.7799 17.37C27.7499 17.355 27.4799 17.205 26.8499 17.205H22.2149C21.5999 17.205 21.0899 16.695 21.0899 16.08V5.28C21.1049 4.53 20.9549 4.215 20.8949 4.11Z" fill="white"/>
</svg>
