<svg width="36" height="36" viewBox="0 0 36 36" fill="none" xmlns="http://www.w3.org/2000/svg">
<path d="M8.35456 34.05C4.84456 34.05 1.87456 31.08 1.87456 27.57V18.33C1.79956 13.95 3.41956 9.825 6.44956 6.735C9.47956 3.66 13.5446 1.95 17.9246 1.95C26.8646 1.95 34.1246 9.225 34.1246 18.15V27.39C34.1246 30.96 31.2146 33.87 27.6446 33.87C24.1346 33.87 21.1646 30.9 21.1646 27.39V23.175C21.1646 21 22.8746 19.29 25.0496 19.29C27.2246 19.29 28.9346 21 28.9346 23.175V27.72C28.9346 28.335 28.4246 28.845 27.8096 28.845C27.1946 28.845 26.6846 28.335 26.6846 27.72V23.175C26.6846 22.155 25.8596 21.54 25.0496 21.54C24.0296 21.54 23.4146 22.365 23.4146 23.175V27.39C23.4146 29.685 25.3496 31.62 27.6446 31.62C29.9396 31.62 31.8746 29.685 31.8746 27.39V18.15C31.8746 10.455 25.6196 4.2 17.9246 4.2C14.1596 4.2 10.6646 5.655 8.05456 8.31C5.44456 10.965 4.04956 14.52 4.12456 18.3V27.57C4.12456 29.865 6.05956 31.8 8.35456 31.8C10.6496 31.8 12.5846 29.865 12.5846 27.57V23.355C12.5846 22.335 11.7596 21.72 10.9496 21.72C9.92956 21.72 9.31456 22.545 9.31456 23.355V27.735C9.31456 28.35 8.80456 28.86 8.18956 28.86C7.57456 28.86 7.06456 28.35 7.06456 27.735V23.355C7.06456 21.18 8.77456 19.47 10.9496 19.47C13.1246 19.47 14.8346 21.18 14.8346 23.355V27.57C14.8346 31.08 11.8646 34.05 8.35456 34.05Z" fill="white"/>
</svg>
