<svg width="36" height="36" viewBox="0 0 36 36" fill="none" xmlns="http://www.w3.org/2000/svg">
<path d="M18 23.625C11.79 23.625 6.75 18.75 6.75 12.75C6.75 6.75 11.79 1.875 18 1.875C24.21 1.875 29.25 6.75 29.25 12.75C29.25 18.75 24.21 23.625 18 23.625ZM18 4.125C13.035 4.125 9 7.995 9 12.75C9 17.505 13.035 21.375 18 21.375C22.965 21.375 27 17.505 27 12.75C27 7.995 22.965 4.125 18 4.125Z" fill="white"/>
<path d="M23.43 34.125C23.01 34.125 22.59 34.0199 22.155 33.8249L18.12 31.92C18.075 31.905 17.91 31.905 17.85 31.92L13.845 33.81C12.96 34.23 12.03 34.215 11.31 33.75C10.56 33.27 10.125 32.385 10.14 31.335L10.155 20.265C10.155 19.65 10.635 19.11 11.28 19.14C11.895 19.14 12.405 19.65 12.405 20.265L12.39 31.335C12.39 31.665 12.48 31.83 12.525 31.845C12.555 31.86 12.69 31.8749 12.9 31.7699L16.92 29.865C17.565 29.565 18.45 29.565 19.095 29.865L23.13 31.7699C23.34 31.8749 23.475 31.86 23.505 31.845C23.55 31.815 23.64 31.65 23.64 31.335V19.9949C23.64 19.3799 24.15 18.8699 24.765 18.8699C25.38 18.8699 25.89 19.3799 25.89 19.9949V31.335C25.89 32.4 25.455 33.27 24.705 33.75C24.315 34.005 23.88 34.125 23.43 34.125Z" fill="white"/>
</svg>
