<svg width="15" height="16" viewBox="0 0 15 16" fill="none" xmlns="http://www.w3.org/2000/svg">
<g clip-path="url(#clip0_156_1183)">
<path d="M7.5 1.44062C9.50391 1.44062 9.74121 1.45 10.5293 1.4875C11.2617 1.52187 11.6572 1.65313 11.9209 1.7625C12.2695 1.90625 12.5215 2.08125 12.7822 2.35938C13.0459 2.64063 13.207 2.90625 13.3418 3.27813C13.4443 3.55938 13.5674 3.98437 13.5996 4.7625C13.6348 5.60625 13.6436 5.85938 13.6436 7.99375C13.6436 10.1313 13.6348 10.3844 13.5996 11.225C13.5674 12.0063 13.4443 12.4281 13.3418 12.7094C13.207 13.0813 13.043 13.35 12.7822 13.6281C12.5186 13.9094 12.2695 14.0813 11.9209 14.225C11.6572 14.3344 11.2588 14.4656 10.5293 14.5C9.73828 14.5375 9.50098 14.5469 7.5 14.5469C5.49609 14.5469 5.25879 14.5375 4.4707 14.5C3.73828 14.4656 3.34277 14.3344 3.0791 14.225C2.73047 14.0813 2.47852 13.9063 2.21777 13.6281C1.9541 13.3469 1.79297 13.0813 1.6582 12.7094C1.55566 12.4281 1.43262 12.0031 1.40039 11.225C1.36523 10.3813 1.35645 10.1281 1.35645 7.99375C1.35645 5.85625 1.36523 5.60312 1.40039 4.7625C1.43262 3.98125 1.55566 3.55938 1.6582 3.27813C1.79297 2.90625 1.95703 2.6375 2.21777 2.35938C2.48145 2.07813 2.73047 1.90625 3.0791 1.7625C3.34277 1.65313 3.74121 1.52187 4.4707 1.4875C5.25879 1.45 5.49609 1.44062 7.5 1.44062ZM7.5 0C5.46387 0 5.20898 0.009375 4.40918 0.046875C3.6123 0.084375 3.06445 0.221875 2.58984 0.41875C2.09473 0.625 1.67578 0.896875 1.25977 1.34375C0.84082 1.7875 0.585938 2.23438 0.392578 2.75938C0.208008 3.26875 0.0791016 3.85 0.0439453 4.7C0.00878906 5.55625 0 5.82813 0 8C0 10.1719 0.00878906 10.4438 0.0439453 11.2969C0.0791016 12.1469 0.208008 12.7313 0.392578 13.2375C0.585938 13.7656 0.84082 14.2125 1.25977 14.6563C1.67578 15.1 2.09473 15.375 2.58691 15.5781C3.06445 15.775 3.60938 15.9125 4.40625 15.95C5.20605 15.9875 5.46094 15.9969 7.49707 15.9969C9.5332 15.9969 9.78809 15.9875 10.5879 15.95C11.3848 15.9125 11.9326 15.775 12.4072 15.5781C12.8994 15.375 13.3184 15.1 13.7344 14.6563C14.1504 14.2125 14.4082 13.7656 14.5986 13.2406C14.7832 12.7313 14.9121 12.15 14.9473 11.3C14.9824 10.4469 14.9912 10.175 14.9912 8.00313C14.9912 5.83125 14.9824 5.55938 14.9473 4.70625C14.9121 3.85625 14.7832 3.27188 14.5986 2.76563C14.4141 2.23438 14.1592 1.7875 13.7402 1.34375C13.3242 0.9 12.9053 0.625 12.4131 0.421875C11.9355 0.225 11.3906 0.0875 10.5938 0.05C9.79102 0.009375 9.53613 0 7.5 0Z" fill="#FFE087"/>
<path d="M7.5 3.89062C5.37305 3.89062 3.64746 5.73125 3.64746 8C3.64746 10.2688 5.37305 12.1094 7.5 12.1094C9.62695 12.1094 11.3525 10.2688 11.3525 8C11.3525 5.73125 9.62695 3.89062 7.5 3.89062ZM7.5 10.6656C6.12012 10.6656 5.00098 9.47188 5.00098 8C5.00098 6.52813 6.12012 5.33437 7.5 5.33437C8.87988 5.33437 9.99902 6.52813 9.99902 8C9.99902 9.47188 8.87988 10.6656 7.5 10.6656Z" fill="#FFE087"/>
<path d="M12.4043 3.72805C12.4043 4.2593 12 4.68743 11.5049 4.68743C11.0068 4.68743 10.6055 4.25618 10.6055 3.72805C10.6055 3.1968 11.0098 2.76868 11.5049 2.76868C12 2.76868 12.4043 3.19993 12.4043 3.72805Z" fill="#FFE087"/>
</g>
<defs>
<clipPath id="clip0_156_1183">
<rect width="15" height="16" fill="white"/>
</clipPath>
</defs>
</svg>
